<?xml version="1.0" encoding="UTF-8" standalone="no"?>
<!-- Created with Inkscape (http://www.inkscape.org/) -->

<svg
   xmlns:dc="http://purl.org/dc/elements/1.1/"
   xmlns:cc="http://creativecommons.org/ns#"
   xmlns:rdf="http://www.w3.org/1999/02/22-rdf-syntax-ns#"
   xmlns:svg="http://www.w3.org/2000/svg"
   xmlns="http://www.w3.org/2000/svg"
   xmlns:sodipodi="http://sodipodi.sourceforge.net/DTD/sodipodi-0.dtd"
   xmlns:inkscape="http://www.inkscape.org/namespaces/inkscape"
   width="41.213413mm"
   height="55.886189mm"
   viewBox="0 0 41.213412 55.886189"
   id="svg4718"
   version="1.1"
   inkscape:version="0.91+devel+osxmenu r12922"
   sodipodi:docname="autnie-shanty-logo.svg">
  <defs
     id="defs4720" />
  <sodipodi:namedview
     id="base"
     pagecolor="#ffffff"
     bordercolor="#666666"
     borderopacity="1.0"
     inkscape:pageopacity="0.0"
     inkscape:pageshadow="2"
     inkscape:zoom="0.7"
     inkscape:cx="111.3981"
     inkscape:cy="46.421909"
     inkscape:document-units="mm"
     inkscape:current-layer="layer1"
     showgrid="false"
     fit-margin-top="0"
     fit-margin-left="0"
     fit-margin-right="0"
     fit-margin-bottom="0"
     inkscape:window-width="960"
     inkscape:window-height="600"
     inkscape:window-x="164"
     inkscape:window-y="127"
     inkscape:window-maximized="0" />
  <metadata
     id="metadata4723">
    <rdf:RDF>
      <cc:Work
         rdf:about="">
        <dc:format>image/svg+xml</dc:format>
        <dc:type
           rdf:resource="http://purl.org/dc/dcmitype/StillImage" />
        <dc:title></dc:title>
      </cc:Work>
    </rdf:RDF>
  </metadata>
  <g
     inkscape:label="Layer 1"
     inkscape:groupmode="layer"
     id="layer1"
     transform="translate(-5.8366801,-1.8178217)">
    <circle
       style="opacity:1;fill:none;fill-opacity:1;stroke:#000000;stroke-width:2.20197535;stroke-linecap:butt;stroke-linejoin:miter;stroke-miterlimit:4;stroke-dasharray:none;stroke-dashoffset:0;stroke-opacity:1"
       id="circle5777"
       cx="-26.67804"
       cy="-52.250404"
       r="4.3526173"
       transform="scale(-1)" />
    <g
       id="g5779"
       transform="matrix(4.3206628,0,0,4.3206628,-144.59716,278.61844)"
       style="fill:#000000">
      <path
         sodipodi:nodetypes="ccccccccccccccscsszcccc"
         inkscape:connector-curvature="0"
         id="path5781"
         d="m 38.134613,-62.256375 c 1.152023,0.173903 2.13513,1.322672 1.852517,2.510564 -0.132135,0.773118 -0.45751,0.448995 -1.141126,0.710139 -1.016643,0.489457 -3.052996,1.668646 -2.690569,2.436817 -0.280467,0.721029 0.31429,1.52648 1.059587,1.581164 0.883499,0.206521 1.449755,-0.702254 1.845951,-1.429047 0.318138,-0.366271 0.53396,-0.730445 0.903718,-1.034246 0.433808,0.106395 0.190612,0.710565 0.240618,1.034246 -0.05576,0.549926 -0.03811,0.862278 -0.206731,1.388871 -0.356872,0.28587 -0.35227,-0.314015 -0.730873,3e-6 -0.840514,0.345661 -1.946566,0.728627 -3.203226,0.411175 -1.259717,-0.429299 -1.568139,-1.548208 -0.892555,-2.77592 0.497844,-0.887424 1.918797,-1.078258 2.744274,-1.552887 0.553296,-0.260302 1.472633,-0.689572 1.108936,-1.685377 0.0056,-0.08909 -0.09624,-0.258129 -0.127191,-0.332237 -0.253718,-0.607591 -0.96419,-0.927583 -1.577848,-0.81042 -0.317013,0.0284 -0.568565,0.15902 -0.775598,0.348254 -0.07528,0.06881 0.407414,0.279006 0.342897,0.361219 -0.289909,0.369421 -0.95564,0.757866 -1.217625,1.126745 -0.261985,0.368879 -0.592142,0.270175 -0.47744,-0.123885 0.04049,-0.627014 0.01836,-1.27876 0.176659,-1.883928 0.268434,-0.255174 0.438229,0.370437 0.730469,0.123047 0.63693,-0.302002 1.323531,-0.5163 2.035156,-0.404297 z"
         style="font-style:normal;font-variant:normal;font-weight:normal;font-stretch:normal;font-size:17.63888931px;line-height:125%;font-family:'Bell MT';-inkscape-font-specification:'Bell MT, Normal';font-variant-ligatures:none;font-variant-caps:normal;font-variant-numeric:normal;text-align:start;letter-spacing:-0.77787477px;word-spacing:0px;writing-mode:lr-tb;text-anchor:start;fill:#000000;fill-opacity:1;stroke:none;stroke-width:0.1;stroke-linecap:butt;stroke-linejoin:miter;stroke-miterlimit:4;stroke-dasharray:none;stroke-opacity:1" />
      <path
         sodipodi:nodetypes="cccccccccccacccccca"
         inkscape:connector-curvature="0"
         id="path5783"
         d="m 38.935842,-60.914576 c 0.199024,0.600621 0.34331,1.168765 -0.517578,1.740234 -0.880156,0.455721 -1.886066,0.675316 -2.75,1.160156 -0.911524,0.626927 -1.176012,2.10837 -0.371094,2.919922 0.74922,0.622497 1.865695,0.541597 2.710938,0.164063 0.391761,-0.232888 0.718927,-0.536927 0.990234,-0.902344 0.06629,0.386538 0.23898,0.946715 0.654297,1.134766 1.389196,-1.557022 0.638282,0.412729 0.611328,-1.798828 -0.127995,-1.489129 0.146176,-2.996697 -0.08594,-4.47461 -0.1364,-0.763774 0.250466,-0.210037 -0.421504,-0.30013 -0.866119,-0.255332 -0.455477,0.291947 -0.820681,0.356771 z m 0.0625,1.720701 c 0.02338,0.795076 0.101338,1.592855 -0.0039,2.384766 -0.103093,0.8608 -0.855119,1.628245 -1.746094,1.613281 -0.706028,-4.31e-4 -1.168775,-0.75042 -1.085937,-1.402344 0.01076,-0.585891 0.443861,-1.040295 0.904296,-1.339844 0.589873,-0.369787 1.230285,-0.6706 1.779297,-1.097656 l 0.152344,-0.158203 z"
         style="font-style:normal;font-variant:normal;font-weight:normal;font-stretch:normal;font-size:17.63888931px;line-height:125%;font-family:'Bell MT';-inkscape-font-specification:'Bell MT, Normal';font-variant-ligatures:none;font-variant-caps:normal;font-variant-numeric:normal;text-align:start;letter-spacing:-0.77787477px;word-spacing:0px;writing-mode:lr-tb;text-anchor:start;fill:#000000;fill-opacity:1;stroke:none;stroke-width:0.1;stroke-linecap:butt;stroke-linejoin:miter;stroke-miterlimit:4;stroke-dasharray:none;stroke-opacity:1" />
      <path
         style="font-style:normal;font-variant:normal;font-weight:normal;font-stretch:normal;font-size:17.63888931px;line-height:125%;font-family:'Bell MT';-inkscape-font-specification:'Bell MT, Normal';font-variant-ligatures:none;font-variant-caps:normal;font-variant-numeric:normal;text-align:start;letter-spacing:-0.77787477px;word-spacing:0px;writing-mode:lr-tb;text-anchor:start;fill:#000000;fill-opacity:1;stroke:none;stroke-width:0.1;stroke-linecap:butt;stroke-linejoin:miter;stroke-miterlimit:4;stroke-dasharray:none;stroke-opacity:1"
         d="m 41.131669,-62.256375 c -1.152023,0.173903 -2.13513,1.322672 -1.852517,2.510564 0.132135,0.773118 0.820417,1.237629 1.504033,1.498773 0.824908,0.455621 1.891236,0.739038 2.327662,1.648183 0.280467,0.721029 -0.31429,1.52648 -1.059587,1.581164 -0.883499,0.206521 -1.657113,-0.471494 -2.053309,-1.198287 -0.318138,-0.366271 -0.326602,-0.961205 -0.69636,-1.265006 -0.433808,0.106395 -0.190612,0.710565 -0.240618,1.034246 0.05576,0.549926 -0.231249,0.0876 -0.06263,0.614193 0.356872,0.28587 0.621632,0.460663 1.000235,0.774681 0.840514,0.345661 1.781202,0.728627 2.683509,0.363928 1.259717,-0.429299 2.11148,-2.020678 1.435896,-3.24839 -0.497844,-0.887424 -1.588068,-1.101882 -2.413545,-1.576511 -0.553296,-0.260302 -1.30197,-0.506045 -1.35361,-1.222779 -0.05167,-0.816203 0.906511,-1.193433 1.59536,-1.061914 0.317013,0.0284 0.568565,0.15902 0.775598,0.348254 0.07528,0.06881 -0.407414,0.279006 -0.342897,0.361219 0.289909,0.369421 0.95564,0.757866 1.217625,1.126745 0.261985,0.368879 0.592142,0.270175 0.47744,-0.123885 -0.04049,-0.627014 -0.01836,-1.27876 -0.176659,-1.883928 -0.268434,-0.255174 -0.438229,0.370437 -0.730469,0.123047 -0.63693,-0.302002 -1.323531,-0.5163 -2.035156,-0.404297 z"
         id="path5785"
         inkscape:connector-curvature="0"
         sodipodi:nodetypes="cccccccccccccccsszcccc" />
      <path
         style="font-style:normal;font-variant:normal;font-weight:normal;font-stretch:normal;font-size:17.63888931px;line-height:125%;font-family:'Bell MT';-inkscape-font-specification:'Bell MT, Normal';font-variant-ligatures:none;font-variant-caps:normal;font-variant-numeric:normal;text-align:start;letter-spacing:-0.77787477px;word-spacing:0px;writing-mode:lr-tb;text-anchor:start;fill:#000000;fill-opacity:1;stroke:none;stroke-width:0.1;stroke-linecap:butt;stroke-linejoin:miter;stroke-miterlimit:4;stroke-dasharray:none;stroke-opacity:1"
         d="m 38.935842,-60.914576 c 0.199024,0.600621 0.34331,1.168765 -0.517578,1.740234 -0.880156,0.455721 -1.886066,0.675316 -2.75,1.160156 -0.911524,0.626927 -1.176012,2.10837 -0.371094,2.919922 0.74922,0.622497 1.865695,0.541597 2.710938,0.164063 0.391761,-0.232888 0.718927,-0.536927 0.990234,-0.902344 0.06862,0.386821 0.241713,0.953402 0.654297,1.134766 0.274743,-0.0092 0.175106,-0.460307 0.374729,-0.463013 2.296458,-0.03113 0.261397,0.698874 0.236599,-1.335815 -0.127995,-1.489129 0.146176,-2.996697 -0.08594,-4.47461 -0.1364,-0.763774 0.250466,-0.210037 -0.421504,-0.30013 -0.866119,-0.255332 -0.455477,0.291947 -0.820681,0.356771 z m 0.0625,1.720701 c 0.02338,0.795076 0.101338,1.592855 -0.0039,2.384766 -0.103093,0.8608 -0.855119,1.628245 -1.746094,1.613281 -0.706028,-4.31e-4 -1.168775,-0.75042 -1.085937,-1.402344 0.01076,-0.585891 0.443861,-1.040295 0.904296,-1.339844 0.589873,-0.369787 1.230285,-0.6706 1.779297,-1.097656 l 0.152344,-0.158203 z"
         id="path5787"
         inkscape:connector-curvature="0"
         sodipodi:nodetypes="cccccccsccccacccccca" />
    </g>
    <path
       style="color:#000000;display:inline;overflow:visible;visibility:visible;fill:#000000;fill-opacity:1;stroke:none;stroke-width:0.04119675;stroke-linecap:butt;stroke-linejoin:miter;stroke-miterlimit:4;stroke-dasharray:none;stroke-dashoffset:0;stroke-opacity:1;marker:none;enable-background:accumulate"
       d="m 26.444339,1.8178217 c -3.516714,2.6329118 -5.731734,2.5077217 -7.921867,3.2129833 -3.86582,1.2447746 -6.431944,3.6337486 -8.444322,6.483951 0.389292,0.282455 0.801206,0.444775 1.294974,0.0269 2.408021,-1.141742 4.979797,-1.9935164 7.645016,-1.8643384 0.380765,0.01853 0.763339,0.05553 1.147671,0.116061 2.574097,0.3885994 4.946708,1.9098524 6.475007,3.9922184 1.5283,-2.082366 3.90091,-3.603619 6.475004,-3.9922184 3.074672,-0.483941 6.040657,0.4434294 8.792642,1.7482774 0.377152,0.319212 0.705357,0.285746 1.013677,0.133949 C 40.892937,8.7543466 38.304657,6.2991406 34.366161,5.0309099 32.176028,4.3256494 29.961007,4.4508873 26.444339,1.8179755 Z"
       id="path5789"
       inkscape:connector-curvature="0"
       sodipodi:nodetypes="csccccccccsc" />
    <path
       sodipodi:nodetypes="ccccccccccccccscsszcccc"
       inkscape:connector-curvature="0"
       id="path5791"
       d="m 20.16966,9.6296076 c 4.977483,0.7513804 9.225182,5.7148164 8.004092,10.8472924 -0.570891,3.340401 -1.976735,1.939981 -4.93039,3.068281 -4.39259,2.114811 -13.191029,7.20965 -11.625094,10.528684 -1.211774,3.115324 1.357962,6.595377 4.578129,6.831669 3.817341,0.892329 6.263927,-3.034214 7.975774,-6.174424 1.374555,-1.582534 2.307025,-3.156022 3.904618,-4.468652 1.874348,0.459697 0.823592,3.07013 1.039632,4.468652 -0.240886,2.376042 -0.164638,3.725613 -0.893215,6.000843 -1.541925,1.235181 -1.522041,-1.356759 -3.157824,0 -3.631573,1.49349 -8.410491,3.148139 -13.840114,1.776547 -5.4427915,-1.854833 -6.7754014,-6.689279 -3.8564155,-11.993806 2.151011,-3.834262 8.2904885,-4.65878 11.8571205,-6.709491 2.390597,-1.124684 6.362746,-2.979425 4.791342,-7.281959 0.02409,-0.384934 -0.415854,-1.115271 -0.549572,-1.435506 -1.096224,-2.62517 -4.165941,-4.007746 -6.817347,-3.501511 -1.369688,0.122688 -2.456551,0.687045 -3.351105,1.504659 -0.325238,0.297336 1.760327,1.20552 1.481576,1.5607 -1.252607,1.596155 -4.129044,3.274488 -5.2610035,4.868281 -1.131913,1.593837 -2.558427,1.167372 -2.062855,-0.535251 0.174972,-2.709113 0.07935,-5.52506 0.763295,-8.139803 1.159817,-1.1025314 1.8934415,1.600513 3.1561115,0.531633 2.751985,-1.304845 5.718572,-2.2307324 8.793245,-1.7468384 z"
       style="font-style:normal;font-variant:normal;font-weight:normal;font-stretch:normal;font-size:17.63888931px;line-height:125%;font-family:'Bell MT';-inkscape-font-specification:'Bell MT, Normal';font-variant-ligatures:none;font-variant-caps:normal;font-variant-numeric:normal;text-align:start;letter-spacing:-0.77787477px;word-spacing:0px;writing-mode:lr-tb;text-anchor:start;fill:#000000;fill-opacity:1;stroke:none;stroke-width:0.43206626;stroke-linecap:butt;stroke-linejoin:miter;stroke-miterlimit:4;stroke-dasharray:none;stroke-opacity:1" />
    <path
       sodipodi:nodetypes="ccccccccccccacccccca"
       inkscape:connector-curvature="0"
       id="path5793"
       d="m 23.631495,15.427068 c 0.859933,2.595091 1.48334,5.049832 -2.236295,7.518991 -3.802832,1.968995 -8.149027,2.917781 -11.8818235,5.012614 -3.938409,2.708744 -5.0811691,9.109588 -1.603386,12.616014 3.2371285,2.689598 8.0610545,2.340074 11.7130635,0.708878 1.692702,-1.006261 3.106239,-2.319913 4.278477,-3.898733 0.286443,1.670083 1.032587,4.090435 2.82703,4.90295 1.06781,-0.03569 1.120278,-2.334601 1.923846,-2.347069 7.291972,2.120093 0.997314,0.278886 0.717453,-5.425085 -0.553003,-6.434034 0.631613,-12.947695 -0.371309,-19.333288 -0.589343,-3.299984 1.082178,-0.90749 -1.821186,-1.296734 -3.742206,-1.103224 -1.967928,1.261416 -3.54587,1.541462 z m 0.270036,7.434588 c 0.101044,3.435229 0.437871,6.882191 -0.01668,10.303745 -0.445425,3.719269 -3.694653,7.035101 -7.544253,6.970445 -3.050527,0 -5.049928,-3.242276 -4.69201,-6.059014 0.04648,-2.531454 1.917777,-4.494796 3.907165,-5.789028 2.548648,-1.59773 5.315653,-2.897431 7.687754,-4.742623 l 0.658217,-0.683525 z"
       style="font-style:normal;font-variant:normal;font-weight:normal;font-stretch:normal;font-size:17.63888931px;line-height:125%;font-family:'Bell MT';-inkscape-font-specification:'Bell MT, Normal';font-variant-ligatures:none;font-variant-caps:normal;font-variant-numeric:normal;text-align:start;letter-spacing:-0.77787477px;word-spacing:0px;writing-mode:lr-tb;text-anchor:start;fill:#000000;fill-opacity:1;stroke:none;stroke-width:0.43206626;stroke-linecap:butt;stroke-linejoin:miter;stroke-miterlimit:4;stroke-dasharray:none;stroke-opacity:1" />
    <path
       style="font-style:normal;font-variant:normal;font-weight:normal;font-stretch:normal;font-size:17.63888931px;line-height:125%;font-family:'Bell MT';-inkscape-font-specification:'Bell MT, Normal';font-variant-ligatures:none;font-variant-caps:normal;font-variant-numeric:normal;text-align:start;letter-spacing:-0.77787477px;word-spacing:0px;writing-mode:lr-tb;text-anchor:start;fill:#000000;fill-opacity:1;stroke:none;stroke-width:0.43206626;stroke-linecap:butt;stroke-linejoin:miter;stroke-miterlimit:4;stroke-dasharray:none;stroke-opacity:1"
       d="M 33.118928,9.6296076 C 28.141445,10.380988 23.893745,15.344424 25.114835,20.4769 c 0.570896,3.340401 3.54476,5.347404 6.498412,6.4757 3.564134,1.968581 8.171414,3.193147 10.057024,7.121265 1.211825,3.115324 -1.357914,6.595377 -4.578081,6.831669 -3.81734,0.892329 -7.159826,-2.037177 -8.87167,-5.177391 -1.374555,-1.582528 -1.411127,-4.153055 -3.008718,-5.465685 -1.874351,0.459697 -0.823595,3.07013 -1.039631,4.468652 0.240879,2.376042 -0.999169,0.378492 -0.27064,2.653722 1.541926,1.235137 2.685893,1.990362 4.321675,3.347121 3.631617,1.49349 7.696005,3.148139 11.594549,1.572422 5.442837,-1.854881 9.12298,-8.730675 6.204042,-14.035201 -2.151011,-3.834258 -6.861517,-4.760842 -10.428148,-6.811554 -2.390594,-1.12468 -5.625365,-2.186469 -5.848492,-5.283253 -0.223224,-3.52654 3.916761,-5.156393 6.893033,-4.58814 1.369688,0.122688 2.4566,0.687045 3.351106,1.504659 0.325238,0.297336 -1.760327,1.20552 -1.481532,1.5607 1.252564,1.596155 4.128999,3.274488 5.260912,4.868281 1.131961,1.593837 2.558475,1.167372 2.062854,-0.535251 -0.174924,-2.709113 -0.0793,-5.52506 -0.763245,-8.139803 C 43.90847,9.7422816 43.174842,12.445326 41.912172,11.376446 39.160188,10.071601 36.1936,9.1457136 33.118928,9.6296076 Z"
       id="path5795"
       inkscape:connector-curvature="0"
       sodipodi:nodetypes="cccccccccccccccsszcccc" />
    <path
       inkscape:connector-curvature="0"
       id="path5797"
       d="m 26.678082,48.565523 0,-14.1476"
       style="fill:#000000;fill-rule:evenodd;stroke:#000000;stroke-width:2.20197535;stroke-linecap:butt;stroke-linejoin:miter;stroke-miterlimit:4;stroke-dasharray:none;stroke-opacity:1"
       sodipodi:nodetypes="cc" />
    <path
       inkscape:connector-curvature="0"
       id="path5799"
       d="m 20.844008,43.881251 11.668153,0"
       style="fill:#000000;fill-rule:evenodd;stroke:#000000;stroke-width:2.20197535;stroke-linecap:butt;stroke-linejoin:miter;stroke-miterlimit:4;stroke-dasharray:none;stroke-opacity:1" />
  </g>
</svg>
